<svg xmlns="http://www.w3.org/2000/svg" viewBox="220 165 705 690" role="img" aria-label="Are.na MCP logo mark">
  <g fill="none" stroke="#000000" stroke-width="48" stroke-linecap="round" stroke-linejoin="round">
    <path d="M245 510 L500 255 C565 190 670 190 735 255 C800 320 800 425 735 490 L555 670 C490 735 385 735 320 670 C255 605 255 500 320 435 L530 225"/>
    <path d="M540 345 L360 525 C320 565 320 630 360 670"/>
    <path d="M620 450 L520 550"/>
    <path d="M525 640 L615 730"/>
  </g>
  <g fill="#000000" transform="translate(690 675)">
    <path d="M130 0 L146 58 L206 58 L158 94 L175 152 L130 116 L85 152 L102 94 L54 58 L114 58 Z"/>
  </g>
</svg>
