<?xml version="1.0" encoding="UTF-8"?>
<svg id="Layer_1" data-name="Layer 1" xmlns="http://www.w3.org/2000/svg" viewBox="0 0 1024 1024">
  <defs>
    <style>
      .cls-1 {
        fill: #fff;
      }
    </style>
  </defs>
  <path class="cls-1" d="M1024,0v1024H0V0h1024ZM627.01,347c11.33-87.47-89.89-144.4-158.53-88.02-62.59,63.24-126.02,125.66-189.13,188.37-8.12,8.07-43.61,40.99-45.12,48.38-3.28,16.05,7.88,27.81,24.03,25.03,6.89-1.19,20.54-15.34,26.27-20.73,73.36-69.04,141.09-144.44,213.97-214.03,56.04-36.69,118.75,34.92,74.53,86.53-58,59.46-118.57,115.38-175.24,175.76-7.37,18.95,11.31,34.7,29.16,25.16l180.11-177.89c58.48-36.7,124.43,31.96,74.99,86.99-18.73,20.84-43.67,39.99-62.56,61.44-.98,1.12-4.27.96-1.9,4.09l42.68,14.77,55.24-55.84c61.18-69.89.67-173.22-88.51-160.02ZM542.58,349.58c20.57-17.8-.78-48.02-23.49-31.99l-173.12,171.88c-64.67,74.23,7.34,184.52,101.24,157.24,26.55-7.71,35.6-20.96,54.26-38.74,53.65-51.13,105.65-104.56,157.56-157.44,9.82-17.73-9.28-36.66-26.95-26.95-3.79,2.08-6.67,6.57-9.43,9.07-59.02,53.59-112.41,115.41-171.96,168.54-55.84,34.78-118.7-33.2-74.72-84.72l166.61-166.9ZM707.29,527.28c-1.66,2.07-2.63,10.26-3.15,13.36-3.7,22.07-5.25,44.59-9.39,66.61-.62,3.06-3.56,5.41-6.73,4.32l-68.79-27.37c-9.05-1.27-11.85,8.19-6.25,14.31,15.96,14.6,36.6,27.19,52.03,41.97,5.53,5.3,8.33,6.79,2.01,13.03-14.72,14.55-36.53,26.93-52.03,40.97-6.9,6.25-8.44,15.2,2.26,17.32,22.21-6.83,43.67-18.09,65.47-25.59,7.99-2.75,9.96-3.44,12,5.56,5.42,23.88,5.11,51.5,10.3,75.7,4.73,9.14,13.74,7.45,16.52-2.44,6.35-22.59,4.51-53.67,10.69-76.31,1.4-5.12,3.87-5.16,8.33-3.77,22.49,7,43.89,19.13,66.2,26.83,11.22.97,13.28-8.3,5.78-15.81-15.22-15.22-38.4-27.61-53.54-42.45-4.76-4.67-4.68-6.25,0-11.04,14.4-14.76,37.83-27.39,53.03-41.97,7.28-6.99,5.04-15.54-5.24-15.31-21.23,6.96-41.39,17.41-62.5,24.56-5.05,1.71-9.9,4.68-12.19-2.34l-11.35-78.65c-1.51-5.13-10.7-4.89-13.44-1.49ZM567.41,652.44l26.52-26.08c-2.51-4.26-25.02-30.96-27.4-30.36-17.3,18.9-35.78,36.94-54,55.03-27.69,27.49-69.46,53-32.55,94.5,9.51,10.7,30.25,32.75,41,41,14.96,11.47,36.2.97,32.78-18.78-1.94-11.17-33.68-36.02-42.27-46.73-1.58-1.97-4.76-5.63-4.09-8.04,19.77-20.59,39.9-40.57,60.01-60.53Z"/>
  <g>
    <path d="M627.01,347c89.18-13.2,149.69,90.13,88.51,160.02l-55.24,55.84-42.68-14.77c-2.38-3.13.92-2.97,1.9-4.09,18.89-21.45,43.83-40.6,62.56-61.44,49.44-55.03-16.51-123.69-74.99-86.99l-180.11,177.89c-17.86,9.54-36.53-6.21-29.16-25.16,56.67-60.38,117.24-116.3,175.24-175.76,44.23-51.61-18.49-123.22-74.53-86.53-72.88,69.59-140.62,144.98-213.97,214.03-5.73,5.39-19.38,19.55-26.27,20.73-16.15,2.78-27.31-8.98-24.03-25.03,1.51-7.39,37-40.31,45.12-48.38,63.11-62.71,126.54-125.13,189.13-188.37,68.64-56.38,169.86.55,158.53,88.02Z"/>
    <path d="M542.58,349.58l-166.61,166.9c-43.98,51.52,18.88,119.5,74.72,84.72,59.54-53.13,112.93-114.95,171.96-168.54,2.75-2.5,5.64-6.99,9.43-9.07,17.67-9.71,36.77,9.22,26.95,26.95-51.9,52.88-103.91,106.31-157.56,157.44-18.65,17.78-27.71,31.03-54.26,38.74-93.9,27.28-165.91-83.02-101.24-157.24l173.12-171.88c22.71-16.03,44.06,14.19,23.49,31.99Z"/>
    <path d="M707.29,527.28c2.73-3.39,11.93-3.64,13.44,1.49l11.35,78.65c2.29,7.02,7.14,4.05,12.19,2.34,21.11-7.15,41.27-17.61,62.5-24.56,10.28-.23,12.52,8.32,5.24,15.31-15.2,14.59-38.62,27.21-53.03,41.97-4.68,4.79-4.76,6.37,0,11.04,15.14,14.85,38.33,27.23,53.54,42.45,7.5,7.5,5.44,16.78-5.78,15.81-22.3-7.7-43.7-19.83-66.2-26.83-4.46-1.39-6.93-1.35-8.33,3.77-6.18,22.64-4.33,53.72-10.69,76.31-2.78,9.89-11.79,11.57-16.52,2.44-5.19-24.2-4.89-51.82-10.3-75.7-2.04-9-4.01-8.31-12-5.56-21.8,7.5-43.27,18.76-65.47,25.59-10.7-2.12-9.16-11.08-2.26-17.32,15.5-14.03,37.31-26.42,52.03-40.97,6.32-6.24,3.52-7.73-2.01-13.03-15.43-14.78-36.07-27.37-52.03-41.97-5.6-6.13-2.8-15.59,6.25-14.31l68.79,27.37c3.16,1.09,6.11-1.26,6.73-4.32,4.15-22.02,5.69-44.54,9.39-66.61.52-3.1,1.48-11.3,3.15-13.36Z"/>
    <path d="M567.41,652.44c-20.12,19.96-40.24,39.94-60.01,60.53-.67,2.41,2.51,6.07,4.09,8.04,8.59,10.7,40.34,35.56,42.27,46.73,3.42,19.75-17.83,30.26-32.78,18.78-10.75-8.25-31.49-30.3-41-41-36.9-41.5,4.86-67.01,32.55-94.5,18.22-18.09,36.7-36.13,54-55.03,2.38-.59,24.89,26.11,27.4,30.36l-26.52,26.08Z"/>
  </g>
</svg>